# xmcd
#
# Track frame offsets: 
#        150
#        11919
#        26646
#        42646
#        56022
#        73528
#        88014
#        103565
#        119173
#        133191
#
# Disc length: 1965 seconds
#
# Revision: 0
# Processed by: cddbd v1.5.2PL0 Copyright (c) Steve Scherf et al.
# Submitted via: ExactAudioCopy v0.95b4
#
DISCID=9407ab0a
DTITLE=High Noon - Bending Rules and Breaking Hearts
DYEAR=1900
DGENRE=Pop Country
TTITLE0=With Every Rose in Life
TTITLE1=My Favorite Waste of Time
TTITLE2=Have a Little Faith
TTITLE3=Good Girls Goin' Bad
TTITLE4=Carolina's Calling Me
TTITLE5=Your Love Has Got a Hold on Me
TTITLE6=You Got a Way With My Heart
TTITLE7=Language of Love
TTITLE8=the Chance You Take
TTITLE9=Bending Rules, Breaking Hearts
EXTD=
EXTT0=
EXTT1=
EXTT2=
EXTT3=
EXTT4=
EXTT5=
EXTT6=
EXTT7=
EXTT8=
EXTT9=
PLAYORDER=
